<?xml version="1.0" encoding="utf-8"?>
<!-- Generator: Adobe Illustrator 24.3.0, SVG Export Plug-In . SVG Version: 6.00 Build 0)  -->
<svg version="1.1" id="Layer_1" xmlns="http://www.w3.org/2000/svg" xmlns:xlink="http://www.w3.org/1999/xlink" x="0px" y="0px"
	 viewBox="0 0 391.4 86.6" style="enable-background:new 0 0 391.4 86.6;" xml:space="preserve">
<style type="text/css">
	.st0{fill:url(#SVGID_1_);}
	.st1{fill:url(#SVGID_2_);}
	.st2{fill:url(#SVGID_3_);}
	.st3{fill:url(#SVGID_4_);}
	.st4{fill:url(#SVGID_5_);}
	.st5{fill:url(#SVGID_6_);}
	.st6{fill:#FFFFFF;}
	.st7{fill:url(#SVGID_7_);}
	.st8{fill:url(#SVGID_8_);}
	.st9{fill:url(#SVGID_9_);}
</style>
<g>
	<g>
		<linearGradient id="SVGID_1_" gradientUnits="userSpaceOnUse" x1="104.5051" y1="22.795" x2="104.5051" y2="67.4456">
			<stop  offset="0" style="stop-color:#FD7993"/>
			<stop  offset="1" style="stop-color:#F15874"/>
		</linearGradient>
		<path class="st0" d="M110.6,26.8c2.9,1.4,5,3.5,6.6,6.2c1.5,2.7,2.3,6,2.3,9.7c0,3.7-0.8,6.9-2.3,9.6c-1.5,2.7-3.7,4.8-6.6,6.2
			c-2.9,1.4-6.3,2.1-10.3,2.1H89.6V24.7h10.7C104.3,24.7,107.7,25.4,110.6,26.8z M111.8,53.8c2.6-2.6,4-6.3,4-11
			c0-4.8-1.3-8.5-4-11.1s-6.5-4-11.5-4h-7.1v30.1h7.1C105.3,57.8,109.2,56.5,111.8,53.8z"/>
		<linearGradient id="SVGID_2_" gradientUnits="userSpaceOnUse" x1="134.6282" y1="22.795" x2="134.6282" y2="67.4456">
			<stop  offset="0" style="stop-color:#FD7993"/>
			<stop  offset="1" style="stop-color:#F15874"/>
		</linearGradient>
		<path class="st1" d="M148.1,48.1h-23.4c0.1,2.1,0.6,4,1.5,5.5c0.9,1.5,2.2,2.7,3.7,3.4c1.5,0.8,3.2,1.2,5,1.2
			c2.3,0,4.3-0.6,5.9-1.7c1.6-1.1,2.7-2.7,3.2-4.6h3.8c-0.7,2.8-2.2,5-4.4,6.7c-2.3,1.7-5.1,2.6-8.5,2.6c-2.7,0-5-0.6-7.1-1.8
			c-2.1-1.2-3.7-2.9-4.9-5.1c-1.2-2.2-1.8-4.7-1.8-7.7c0-2.9,0.6-5.5,1.8-7.7c1.2-2.2,2.8-3.9,4.9-5.1c2.1-1.2,4.5-1.8,7.2-1.8
			s5,0.6,7,1.8c2,1.2,3.6,2.7,4.6,4.7c1.1,2,1.6,4.2,1.6,6.6C148.2,46.5,148.2,47.4,148.1,48.1z M143.3,39.8
			c-0.9-1.5-2.1-2.6-3.6-3.4c-1.5-0.8-3.2-1.1-5-1.1c-2.7,0-5,0.9-6.9,2.6c-1.9,1.7-2.9,4.1-3.2,7.3h19.8
			C144.6,43,144.2,41.2,143.3,39.8z"/>
		<linearGradient id="SVGID_3_" gradientUnits="userSpaceOnUse" x1="160.2307" y1="22.795" x2="160.2307" y2="67.4456">
			<stop  offset="0" style="stop-color:#FD7993"/>
			<stop  offset="1" style="stop-color:#F15874"/>
		</linearGradient>
		<path class="st2" d="M153.1,58.9c-2-1.5-3.2-3.5-3.4-6.1h3.7c0.2,1.6,0.9,2.9,2.2,3.8c1.3,1,3.1,1.5,5.3,1.5c2,0,3.5-0.5,4.6-1.4
			s1.7-2.1,1.7-3.5c0-1-0.3-1.8-0.9-2.4c-0.6-0.6-1.4-1.1-2.3-1.5c-0.9-0.4-2.2-0.7-3.8-1.2c-2.1-0.6-3.8-1.1-5.1-1.7
			c-1.3-0.6-2.4-1.4-3.3-2.5c-0.9-1.1-1.4-2.5-1.4-4.4c0-1.4,0.4-2.7,1.2-3.8c0.8-1.2,2-2.1,3.5-2.8c1.5-0.7,3.2-1,5.2-1
			c3,0,5.5,0.8,7.3,2.3c1.9,1.5,2.9,3.6,3,6.3h-3.6c-0.1-1.7-0.7-3-1.9-4c-1.2-1-2.8-1.5-4.9-1.5c-1.8,0-3.3,0.4-4.4,1.3
			c-1.1,0.9-1.7,1.9-1.7,3.2c0,1.1,0.3,2,1,2.7c0.7,0.7,1.5,1.3,2.5,1.7c1,0.4,2.3,0.8,4,1.3c2,0.6,3.6,1.1,4.9,1.6
			c1.2,0.5,2.2,1.3,3.1,2.3c0.9,1,1.3,2.3,1.3,4c0,1.5-0.4,2.9-1.2,4.1c-0.8,1.2-2,2.1-3.5,2.8c-1.5,0.7-3.2,1-5.1,1
			C157.8,61.2,155.1,60.4,153.1,58.9z"/>
		<linearGradient id="SVGID_4_" gradientUnits="userSpaceOnUse" x1="174.8063" y1="22.795" x2="174.8063" y2="67.4456">
			<stop  offset="0" style="stop-color:#FD7993"/>
			<stop  offset="1" style="stop-color:#F15874"/>
		</linearGradient>
		<path class="st3" d="M172.9,26.5c-0.5-0.5-0.8-1.2-0.8-1.9c0-0.8,0.3-1.4,0.8-1.9c0.5-0.5,1.1-0.7,1.9-0.7c0.7,0,1.3,0.2,1.9,0.7
			c0.5,0.5,0.8,1.1,0.8,1.9c0,0.8-0.3,1.4-0.8,1.9c-0.5,0.5-1.1,0.8-1.9,0.8C174.1,27.3,173.5,27,172.9,26.5z M176.6,32.6v28.2H173
			V32.6H176.6z"/>
		<linearGradient id="SVGID_5_" gradientUnits="userSpaceOnUse" x1="193.9512" y1="22.795" x2="193.9512" y2="67.4456">
			<stop  offset="0" style="stop-color:#FD7993"/>
			<stop  offset="1" style="stop-color:#F15874"/>
		</linearGradient>
		<path class="st4" d="M200.2,34c2,1.2,3.4,2.8,4.2,4.7v-6.1h3.6v28.9c0,2.6-0.6,4.9-1.7,6.9c-1.1,2-2.7,3.5-4.7,4.6
			c-2,1.1-4.3,1.6-6.8,1.6c-3.6,0-6.6-0.9-9-2.6c-2.4-1.7-3.9-4.1-4.5-7h3.6c0.6,2,1.8,3.5,3.5,4.7c1.7,1.2,3.9,1.8,6.4,1.8
			c1.8,0,3.5-0.4,4.9-1.2c1.4-0.8,2.6-1.9,3.4-3.4c0.8-1.5,1.2-3.3,1.2-5.4v-7c-0.9,1.9-2.3,3.5-4.3,4.8c-1.9,1.3-4.2,1.9-6.9,1.9
			c-2.6,0-4.9-0.6-6.9-1.8c-2-1.2-3.6-2.9-4.8-5.1c-1.2-2.2-1.7-4.8-1.7-7.6c0-2.9,0.6-5.4,1.7-7.6c1.2-2.2,2.8-3.9,4.8-5.1
			c2-1.2,4.4-1.8,6.9-1.8C196,32.2,198.3,32.8,200.2,34z M203.1,40.7c-0.9-1.7-2.2-3-3.8-4c-1.6-0.9-3.4-1.4-5.3-1.4
			c-2,0-3.8,0.4-5.4,1.3c-1.6,0.9-2.8,2.2-3.7,3.9c-0.9,1.7-1.4,3.7-1.4,6.1c0,2.3,0.5,4.3,1.4,6.1c0.9,1.7,2.2,3.1,3.7,4
			c1.6,0.9,3.4,1.4,5.4,1.4c1.9,0,3.7-0.5,5.3-1.4c1.6-0.9,2.9-2.3,3.8-4c0.9-1.7,1.4-3.7,1.4-6S204,42.4,203.1,40.7z"/>
		<linearGradient id="SVGID_6_" gradientUnits="userSpaceOnUse" x1="223.4525" y1="22.795" x2="223.4525" y2="67.4456">
			<stop  offset="0" style="stop-color:#FD7993"/>
			<stop  offset="1" style="stop-color:#F15874"/>
		</linearGradient>
		<path class="st5" d="M232.6,35.2c2.1,2.1,3.2,5.1,3.2,9.1v16.5h-3.6V44.7c0-3.1-0.8-5.4-2.3-7c-1.5-1.6-3.6-2.4-6.3-2.4
			c-2.7,0-4.9,0.9-6.5,2.6c-1.6,1.7-2.4,4.3-2.4,7.6v15.4h-3.6V32.6h3.6v4.8c0.9-1.7,2.2-3,3.9-4c1.7-0.9,3.6-1.4,5.7-1.4
			C227.7,32.1,230.5,33.1,232.6,35.2z"/>
		<path class="st6" d="M260.9,27.1c2.9,1.5,5.1,3.6,6.7,6.3c1.6,2.7,2.3,5.9,2.3,9.6c0,3.6-0.8,6.8-2.3,9.5
			c-1.6,2.7-3.8,4.7-6.7,6.2c-2.9,1.4-6.2,2.1-10,2.1h-11.7V24.9h11.7C254.7,24.9,258,25.6,260.9,27.1z M260.5,52.6
			c2.2-2.3,3.4-5.5,3.4-9.6c0-4.2-1.1-7.4-3.4-9.8c-2.2-2.3-5.5-3.5-9.7-3.5H245V56h5.8C255.1,56,258.3,54.8,260.5,52.6z"/>
		<path class="st6" d="M299.9,48.7h-21.7c0.2,2.3,1,4.1,2.5,5.5c1.5,1.4,3.4,2.1,5.6,2.1c3.2,0,5.4-1.3,6.7-4h6.4
			c-0.9,2.6-2.4,4.8-4.7,6.4c-2.3,1.7-5.1,2.5-8.4,2.5c-2.7,0-5.2-0.6-7.3-1.8c-2.2-1.2-3.8-2.9-5.1-5.2c-1.2-2.2-1.8-4.8-1.8-7.7
			c0-2.9,0.6-5.5,1.8-7.7s2.9-3.9,5-5.1c2.2-1.2,4.6-1.8,7.4-1.8c2.7,0,5.1,0.6,7.2,1.8c2.1,1.2,3.7,2.8,4.9,4.9
			c1.2,2.1,1.8,4.6,1.8,7.3C300.2,46.9,300.1,47.9,299.9,48.7z M294,44c0-2.2-0.8-3.9-2.3-5.2c-1.5-1.3-3.4-2-5.6-2
			c-2,0-3.8,0.6-5.2,1.9s-2.3,3-2.6,5.2H294z"/>
		<path class="st6" d="M312,33.1c1.4-0.8,3.1-1.2,5.1-1.2v6.1h-1.5c-2.3,0-4.1,0.6-5.2,1.8c-1.2,1.2-1.8,3.2-1.8,6.1v15h-5.9V32.3
			h5.9v4.1C309.4,35,310.6,33.9,312,33.1z"/>
		<path class="st6" d="M320.5,27.5c-0.7-0.7-1.1-1.6-1.1-2.7c0-1.1,0.4-2,1.1-2.7c0.7-0.7,1.6-1.1,2.7-1.1c1,0,1.9,0.4,2.6,1.1
			c0.7,0.7,1.1,1.6,1.1,2.7c0,1.1-0.4,2-1.1,2.7c-0.7,0.7-1.6,1.1-2.6,1.1C322.1,28.5,321.2,28.2,320.5,27.5z M326.1,32.3v28.5h-5.9
			V32.3H326.1z"/>
		<path class="st6" d="M343,55.5l8.1-23.2h6.2l-10.8,28.5h-7l-10.8-28.5h6.3L343,55.5z"/>
		<path class="st6" d="M383.7,48.7h-21.7c0.2,2.3,1,4.1,2.5,5.5c1.5,1.4,3.4,2.1,5.6,2.1c3.2,0,5.4-1.3,6.7-4h6.4
			c-0.9,2.6-2.4,4.8-4.7,6.4c-2.3,1.7-5.1,2.5-8.4,2.5c-2.7,0-5.2-0.6-7.3-1.8c-2.2-1.2-3.8-2.9-5.1-5.2c-1.2-2.2-1.8-4.8-1.8-7.7
			c0-2.9,0.6-5.5,1.8-7.7c1.2-2.2,2.9-3.9,5-5.1c2.2-1.2,4.6-1.8,7.4-1.8c2.7,0,5.1,0.6,7.2,1.8c2.1,1.2,3.7,2.8,4.9,4.9
			c1.2,2.1,1.8,4.6,1.8,7.3C383.9,46.9,383.8,47.9,383.7,48.7z M377.7,44c0-2.2-0.8-3.9-2.3-5.2c-1.5-1.3-3.4-2-5.6-2
			c-2,0-3.8,0.6-5.2,1.9s-2.3,3-2.6,5.2H377.7z"/>
	</g>
	<g>
		<linearGradient id="SVGID_7_" gradientUnits="userSpaceOnUse" x1="5.9395" y1="50.9225" x2="61.5875" y2="50.9225">
			<stop  offset="0" style="stop-color:#FD7993"/>
			<stop  offset="1" style="stop-color:#F15874"/>
		</linearGradient>
		<path class="st7" d="M49.6,27.2l-3.5,1.2l0,0l-13.6,4.5l-1.7,0.6L5.9,58.4v3.1l24.4-24.4l0,6.5L5.9,67.9v3.1l25.9-25.9l8,0l0,8
			L14.6,78.4h3.1l23.7-23.7l6.5,0L24.2,78.4h3.1L51,54.7l0.5-0.5l0.6-1.7l4.5-13.6v0l1.2-3.5l3.8-12L49.6,27.2z M49.8,52.5
			L49.8,52.5l-7.7,0l0-9.6l-9.6,0v-7.7l13-4.3l8.6,8.6L49.8,52.5z"/>
	</g>
	<path class="st6" d="M44.1,64.7L41.8,67h0.5c13.3,0,24.2-10.9,24.2-24.2c0-4.7-1.3-9-3.6-12.7l-0.9,3c1.5,2.9,2.3,6.2,2.3,9.7
		C64.2,54.3,55.4,63.7,44.1,64.7z"/>
	<path class="st6" d="M18.1,18.6V42l2.3-2.3V20.9h21.9c3,0,5.9,0.6,8.6,1.8l3.1-1c-3.5-1.9-7.5-3-11.7-3H18.1z"/>
	<linearGradient id="SVGID_8_" gradientUnits="userSpaceOnUse" x1="5.4032" y1="42.7253" x2="79.3439" y2="42.7253">
		<stop  offset="0" style="stop-color:#FD7993"/>
		<stop  offset="1" style="stop-color:#F15874"/>
	</linearGradient>
	<path class="st8" d="M42.3,5.8L5.4,5.7v65.9l2.3-2.3V8l34.6,0.1h0c19.2,0,34.7,15.5,34.7,34.6c0,8.2-2.9,16.2-8.2,22.4
		c-0.6,0.7-1.3,1.3-2,2.1l0,0c-6.5,6.6-15.2,10.2-24.4,10.2H15.6l-2.3,2.3h29.1c9.9,0,19.1-3.9,26.1-10.9c0.7-0.7,1.4-1.4,2.1-2.2
		c5.7-6.6,8.8-15.1,8.8-23.9C79.3,22.4,62.7,5.8,42.3,5.8z"/>
	<linearGradient id="SVGID_9_" gradientUnits="userSpaceOnUse" x1="14.5616" y1="57.084" x2="41.0623" y2="57.084">
		<stop  offset="0" style="stop-color:#FD7993"/>
		<stop  offset="1" style="stop-color:#F15874"/>
	</linearGradient>
	<polygon class="st9" points="16.4,70 41.1,45.4 39.5,43.8 14.8,68.5 14.6,70.3 	"/>
</g>
</svg>
